<?xml version="1.0" encoding="utf-8"?>
<!-- Generator: Adobe Illustrator 15.0.0, SVG Export Plug-In . SVG Version: 6.00 Build 0)  -->
<!DOCTYPE svg PUBLIC "-//W3C//DTD SVG 1.1//EN" "http://www.w3.org/Graphics/SVG/1.1/DTD/svg11.dtd">
<svg version="1.1" id="Layer_1" xmlns="http://www.w3.org/2000/svg" xmlns:xlink="http://www.w3.org/1999/xlink" x="0px" y="0px"
	 width="581.8px" height="174px" viewBox="0 0 581.8 174" enable-background="new 0 0 581.8 174" xml:space="preserve">
<g>
	<path fill="#3E454C" d="M179.1,95h-6.9L148,34.1V95h-9.9V22.9h15.7l21.9,56.3L198,22.9h15.7V95h-9.9V34.1L179.1,95z"/>
	<path fill="#3E454C" d="M230.6,95V22.9h9.9V95H230.6z"/>
	<path fill="#3E454C" d="M257.5,95V22.9h9.9v63.2h31.301V95H257.5z"/>
	<path fill="#3E454C" d="M354,95L348.3,79.7h-30.7L312.1,95h-10.8l27.9-72.1h8.699L365.4,95H354z M321,70.8h24.201L333.1,37.9H333
		L321,70.8z"/>
	<path fill="#3E454C" d="M408.6,63.9V55h28.2v27.4c-6.9,8.8-17.7,13.8-29.6,13.8c-22,0-38.701-14.9-38.701-37.3
		c0-21.3,17.4-37.3,38.701-37.3c11.1,0,21,4.9,27.898,12.8l-7,5.8c-5-5.7-12.699-9.7-20.898-9.7C391,30.5,379,42.5,379,58.9
		c0,17.5,11.701,28.4,28.201,28.4c7.6,0,14.6-2.7,19.699-7.5v-16h-18.3V63.9z"/>
	<path fill="#3E454C" d="M491.201,95l-21.602-30.5h-7.398V95h-9.9V22.9h21.4c11,0,24.6,5.8,24.6,20.7c0,12.3-8.801,18.4-17.6,20.3
		L503.599,95H491.201z M473.201,31.8h-11v23.9h9c9.6,0,16.699-3.5,16.699-11.7C487.8,36.6,481.9,31.8,473.201,31.8z"/>
	<path fill="#3E454C" d="M544.8,96.2c-21,0-37.1-16.7-37.1-37.3s16.1-37.3,37.1-37.3s37.1,16.7,37.1,37.3
		C581.8,79.5,565.8,96.2,544.8,96.2z M544.8,30.5c-15.301,0-26.6,12.5-26.6,28.4s11.199,28.4,26.6,28.4s26.6-12.5,26.6-28.4
		S560.099,30.5,544.8,30.5z"/>
</g>
<g>
	<path fill="#C2FF17" d="M85.9,105.4L1.8,66.2C0.7,65.7,0,64.6,0,63.4v-49c0-2.3,2.4-3.8,4.4-2.8l84.1,39.2c1.1,0.5,1.8,1.6,1.8,2.8
		v49C90.3,104.9,88,106.4,85.9,105.4z"/>
	<g>
		<path fill="#31BCA4" d="M88.8,52.3L0,93.7v20.2c0,2.3,2.4,3.8,4.4,2.8l84.1-39.2c1.1-0.5,1.8-1.6,1.8-2.8V53.6
			c0-0.7-0.2-1.3-0.5-1.8l0,0l0,0l0,0l0,0c-0.2-0.4-0.6-0.6-1-0.9c0.2,0.2,0.3,0.4,0.3,0.7C89.1,51.9,89,52.1,88.8,52.3z"/>
	</g>
	<g>
		<path fill="#40D37B" d="M1.6,64.7l88.8-41.4V3.1c0-2.3-2.4-3.8-4.4-2.8L1.8,39.5C0.7,40,0,41.1,0,42.3V63.4
			c0,0.699,0.2,1.3,0.5,1.8l0,0l0,0l0,0l0,0c0.2,0.399,0.6,0.6,1,0.899C1.3,65.9,1.2,65.7,1.2,65.4C1.2,65.1,1.3,64.9,1.6,64.7z"/>
	</g>
</g>
<g>
	<path fill="#3E454C" d="M32.354,160.64v-13.578c0-1.662-0.355-2.91-1.066-3.741c-0.711-0.832-1.815-1.247-3.313-1.247
		c-1.968,0-3.421,0.564-4.361,1.694s-1.409,2.869-1.409,5.218v11.654h-3.161v-13.578c0-1.662-0.355-2.91-1.066-3.741
		c-0.711-0.832-1.822-1.247-3.333-1.247c-1.98,0-3.431,0.593-4.351,1.78c-0.921,1.187-1.381,3.132-1.381,5.837v10.949H5.751v-20.871
		h2.571l0.514,2.856h0.152c0.597-1.016,1.438-1.81,2.523-2.38c1.085-0.572,2.301-0.857,3.646-0.857c3.263,0,5.396,1.181,6.398,3.542
		h0.152c0.622-1.092,1.523-1.955,2.704-2.59s2.526-0.952,4.037-0.952c2.361,0,4.129,0.606,5.304,1.818
		c1.174,1.213,1.761,3.152,1.761,5.818v13.615H32.354z"/>
	<path fill="#3E454C" d="M43.166,134.112c0-0.723,0.178-1.253,0.533-1.59c0.355-0.336,0.8-0.504,1.333-0.504
		c0.508,0,0.946,0.171,1.314,0.514s0.552,0.87,0.552,1.58c0,0.712-0.184,1.241-0.552,1.591c-0.368,0.349-0.806,0.523-1.314,0.523
		c-0.533,0-0.978-0.175-1.333-0.523C43.343,135.354,43.166,134.824,43.166,134.112z M46.593,160.64h-3.161v-20.871h3.161V160.64z"/>
	<path fill="#3E454C" d="M57.862,160.64h-3.161v-29.631h3.161V160.64z"/>
	<path fill="#3E454C" d="M78.804,160.64l-0.628-2.971h-0.152c-1.041,1.308-2.079,2.193-3.114,2.656
		c-1.035,0.464-2.326,0.695-3.875,0.695c-2.069,0-3.691-0.533-4.865-1.6c-1.175-1.066-1.762-2.583-1.762-4.551
		c0-4.215,3.371-6.424,10.112-6.627l3.542-0.115v-1.295c0-1.637-0.352-2.847-1.057-3.627c-0.704-0.781-1.831-1.172-3.38-1.172
		c-1.739,0-3.707,0.533-5.903,1.6l-0.971-2.418c1.028-0.559,2.155-0.996,3.38-1.314c1.225-0.316,2.453-0.476,3.685-0.476
		c2.488,0,4.332,0.552,5.532,1.657c1.199,1.104,1.799,2.875,1.799,5.312v14.244H78.804z M71.663,158.411
		c1.968,0,3.513-0.539,4.637-1.618c1.123-1.079,1.685-2.59,1.685-4.532v-1.885l-3.161,0.133c-2.514,0.089-4.326,0.479-5.437,1.171
		c-1.111,0.692-1.666,1.769-1.666,3.228c0,1.143,0.346,2.013,1.038,2.609C69.45,158.113,70.418,158.411,71.663,158.411z"/>
	<path fill="#3E454C" d="M106.145,139.769v2l-3.866,0.457c0.355,0.444,0.673,1.024,0.952,1.742c0.279,0.717,0.419,1.526,0.419,2.428
		c0,2.044-0.698,3.676-2.095,4.895s-3.313,1.828-5.751,1.828c-0.622,0-1.206-0.051-1.752-0.152
		c-1.346,0.711-2.019,1.605-2.019,2.685c0,0.571,0.235,0.993,0.705,1.267c0.47,0.272,1.276,0.409,2.418,0.409h3.694
		c2.26,0,3.996,0.476,5.208,1.429c1.212,0.951,1.819,2.335,1.819,4.15c0,2.311-0.927,4.072-2.78,5.285
		c-1.854,1.212-4.558,1.818-8.112,1.818c-2.729,0-4.834-0.508-6.313-1.523s-2.218-2.45-2.218-4.304c0-1.27,0.406-2.368,1.219-3.294
		c0.812-0.927,1.955-1.556,3.428-1.886c-0.533-0.241-0.981-0.615-1.342-1.124c-0.362-0.507-0.543-1.098-0.543-1.771
		c0-0.762,0.203-1.429,0.609-1.999c0.406-0.572,1.047-1.124,1.923-1.657c-1.079-0.444-1.958-1.2-2.637-2.267
		c-0.68-1.066-1.019-2.285-1.019-3.656c0-2.285,0.686-4.046,2.057-5.284c1.371-1.237,3.313-1.856,5.827-1.856
		c1.092,0,2.076,0.127,2.952,0.381H106.145z M89.501,164.144c0,1.13,0.476,1.986,1.428,2.57s2.317,0.877,4.094,0.877
		c2.653,0,4.618-0.397,5.894-1.19c1.275-0.794,1.914-1.87,1.914-3.228c0-1.131-0.349-1.914-1.047-2.353
		c-0.698-0.438-2.012-0.657-3.942-0.657h-3.79c-1.435,0-2.552,0.344-3.352,1.029S89.501,162.861,89.501,164.144z M91.215,146.452
		c0,1.461,0.413,2.565,1.238,3.314s1.974,1.123,3.447,1.123c3.085,0,4.627-1.498,4.627-4.494c0-3.136-1.562-4.703-4.685-4.703
		c-1.485,0-2.628,0.399-3.428,1.199S91.215,144.879,91.215,146.452z"/>
	<path fill="#3E454C" d="M121.354,139.388c0.927,0,1.758,0.076,2.495,0.229l-0.438,2.933c-0.863-0.19-1.625-0.286-2.285-0.286
		c-1.688,0-3.133,0.686-4.332,2.057c-1.2,1.371-1.8,3.079-1.8,5.123v11.197h-3.161v-20.871h2.609l0.362,3.865h0.152
		c0.774-1.357,1.708-2.405,2.799-3.142S120.047,139.388,121.354,139.388z"/>
	<path fill="#3E454C" d="M147.171,150.185c0,3.403-0.857,6.06-2.571,7.97c-1.714,1.911-4.082,2.866-7.103,2.866
		c-1.866,0-3.523-0.438-4.97-1.314c-1.447-0.875-2.564-2.133-3.352-3.77c-0.787-1.639-1.181-3.555-1.181-5.752
		c0-3.401,0.851-6.052,2.552-7.95c1.701-1.897,4.062-2.847,7.084-2.847c2.92,0,5.24,0.971,6.96,2.914
		C146.311,144.243,147.171,146.872,147.171,150.185z M131.271,150.185c0,2.666,0.533,4.698,1.6,6.094
		c1.066,1.397,2.634,2.096,4.704,2.096s3.64-0.695,4.713-2.086c1.073-1.39,1.609-3.424,1.609-6.104c0-2.652-0.537-4.668-1.609-6.046
		c-1.073-1.377-2.656-2.065-4.751-2.065c-2.069,0-3.631,0.679-4.685,2.037S131.271,147.494,131.271,150.185z"/>
	<path fill="#3E454C" d="M153.66,158.621c0-0.851,0.193-1.495,0.581-1.933c0.387-0.438,0.942-0.657,1.666-0.657
		c0.736,0,1.311,0.219,1.724,0.657c0.412,0.438,0.619,1.082,0.619,1.933c0,0.825-0.209,1.46-0.628,1.904s-0.99,0.667-1.714,0.667
		c-0.647,0-1.184-0.2-1.609-0.601C153.873,160.192,153.66,159.535,153.66,158.621z"/>
	<path fill="#3E454C" d="M165.633,134.112c0-0.723,0.178-1.253,0.533-1.59c0.355-0.336,0.8-0.504,1.333-0.504
		c0.508,0,0.946,0.171,1.314,0.514s0.552,0.87,0.552,1.58c0,0.712-0.184,1.241-0.552,1.591c-0.368,0.349-0.806,0.523-1.314,0.523
		c-0.533,0-0.978-0.175-1.333-0.523C165.811,135.354,165.633,134.824,165.633,134.112z M169.061,160.64h-3.161v-20.871h3.161V160.64
		z"/>
	<path fill="#3E454C" d="M191.45,160.64v-13.502c0-1.7-0.387-2.971-1.162-3.809s-1.987-1.256-3.637-1.256
		c-2.184,0-3.783,0.59-4.799,1.771s-1.523,3.13-1.523,5.847v10.949h-3.161v-20.871h2.571l0.514,2.856h0.152
		c0.647-1.028,1.555-1.825,2.723-2.39c1.168-0.565,2.469-0.848,3.904-0.848c2.514,0,4.405,0.606,5.675,1.818
		c1.27,1.213,1.904,3.152,1.904,5.818v13.615H191.45z"/>
	<path fill="#3E454C" d="M210.85,161.021c-3.021,0-5.36-0.93-7.018-2.79c-1.656-1.859-2.485-4.49-2.485-7.894
		c0-3.49,0.841-6.188,2.523-8.093s4.079-2.856,7.189-2.856c1.003,0,2.006,0.108,3.009,0.324s1.79,0.47,2.361,0.762l-0.971,2.685
		c-0.698-0.279-1.46-0.511-2.285-0.695c-0.825-0.184-1.555-0.276-2.19-0.276c-4.24,0-6.36,2.705-6.36,8.113
		c0,2.564,0.517,4.531,1.552,5.902c1.034,1.371,2.567,2.057,4.599,2.057c1.739,0,3.523-0.374,5.351-1.123v2.799
		C214.728,160.659,212.97,161.021,210.85,161.021z"/>
	<path fill="#3E454C" d="M225.45,139.769v13.539c0,1.702,0.387,2.971,1.162,3.809s1.987,1.258,3.637,1.258
		c2.184,0,3.78-0.597,4.789-1.791c1.01-1.192,1.514-3.142,1.514-5.846v-10.969h3.161v20.871h-2.609l-0.457-2.799h-0.171
		c-0.647,1.027-1.546,1.815-2.695,2.361c-1.149,0.545-2.459,0.818-3.932,0.818c-2.539,0-4.44-0.603-5.704-1.809
		s-1.895-3.136-1.895-5.789v-13.654H225.45z"/>
	<path fill="#3E454C" d="M257.533,139.426c2.742,0,4.872,0.937,6.389,2.809c1.517,1.873,2.276,4.522,2.276,7.95
		s-0.765,6.091-2.294,7.989c-1.53,1.897-3.653,2.847-6.37,2.847c-1.358,0-2.6-0.251-3.723-0.752
		c-1.124-0.502-2.066-1.272-2.828-2.314h-0.229l-0.667,2.686h-2.266v-29.631h3.161v7.198c0,1.612-0.051,3.06-0.152,4.342h0.152
		C252.455,140.467,254.638,139.426,257.533,139.426z M257.076,142.073c-2.158,0-3.713,0.618-4.666,1.856
		c-0.952,1.237-1.428,3.323-1.428,6.255c0,2.934,0.489,5.031,1.466,6.294c0.978,1.264,2.545,1.896,4.704,1.896
		c1.942,0,3.39-0.708,4.342-2.124c0.952-1.415,1.428-3.449,1.428-6.103c0-2.717-0.476-4.742-1.428-6.075
		S259.069,142.073,257.076,142.073z"/>
	<path fill="#3E454C" d="M285.958,160.64l-0.628-2.971h-0.152c-1.041,1.308-2.079,2.193-3.114,2.656
		c-1.035,0.464-2.326,0.695-3.875,0.695c-2.069,0-3.691-0.533-4.865-1.6c-1.175-1.066-1.762-2.583-1.762-4.551
		c0-4.215,3.371-6.424,10.112-6.627l3.542-0.115v-1.295c0-1.637-0.352-2.847-1.057-3.627c-0.704-0.781-1.831-1.172-3.38-1.172
		c-1.739,0-3.707,0.533-5.903,1.6l-0.971-2.418c1.028-0.559,2.155-0.996,3.38-1.314c1.225-0.316,2.453-0.476,3.685-0.476
		c2.488,0,4.332,0.552,5.532,1.657c1.199,1.104,1.799,2.875,1.799,5.312v14.244H285.958z M278.817,158.411
		c1.968,0,3.513-0.539,4.637-1.618c1.123-1.079,1.685-2.59,1.685-4.532v-1.885l-3.161,0.133c-2.514,0.089-4.326,0.479-5.437,1.171
		c-1.111,0.692-1.666,1.769-1.666,3.228c0,1.143,0.346,2.013,1.038,2.609C276.605,158.113,277.573,158.411,278.817,158.411z"/>
	<path fill="#3E454C" d="M302.958,158.411c0.559,0,1.098-0.041,1.618-0.123c0.521-0.083,0.934-0.168,1.238-0.258v2.419
		c-0.343,0.165-0.848,0.302-1.514,0.409c-0.667,0.108-1.267,0.162-1.8,0.162c-4.037,0-6.056-2.126-6.056-6.379v-12.416h-2.99v-1.523
		l2.99-1.314l1.333-4.456h1.828v4.837h6.056v2.457h-6.056v12.282c0,1.257,0.298,2.222,0.896,2.895
		C301.098,158.075,301.917,158.411,302.958,158.411z"/>
	<path fill="#3E454C" d="M329.404,150.185c0,3.403-0.856,6.06-2.571,7.97c-1.713,1.911-4.081,2.866-7.103,2.866
		c-1.866,0-3.522-0.438-4.97-1.314c-1.447-0.875-2.565-2.133-3.352-3.77c-0.788-1.639-1.182-3.555-1.182-5.752
		c0-3.401,0.851-6.052,2.553-7.95c1.7-1.897,4.062-2.847,7.084-2.847c2.919,0,5.239,0.971,6.96,2.914
		C328.543,144.243,329.404,146.872,329.404,150.185z M313.502,150.185c0,2.666,0.533,4.698,1.6,6.094
		c1.066,1.397,2.635,2.096,4.704,2.096s3.641-0.695,4.713-2.086c1.073-1.39,1.609-3.424,1.609-6.104
		c0-2.652-0.536-4.668-1.609-6.046c-1.072-1.377-2.656-2.065-4.751-2.065c-2.069,0-3.631,0.679-4.685,2.037
		S313.502,147.494,313.502,150.185z"/>
	<path fill="#3E454C" d="M345.872,139.388c0.927,0,1.758,0.076,2.494,0.229l-0.438,2.933c-0.863-0.19-1.625-0.286-2.285-0.286
		c-1.688,0-3.133,0.686-4.332,2.057c-1.2,1.371-1.8,3.079-1.8,5.123v11.197h-3.161v-20.871h2.609l0.361,3.865h0.152
		c0.774-1.357,1.707-2.405,2.799-3.142S344.564,139.388,345.872,139.388z"/>
	<path fill="#3E454C" d="M353.217,158.621c0-0.851,0.193-1.495,0.581-1.933c0.387-0.438,0.942-0.657,1.666-0.657
		c0.736,0,1.311,0.219,1.724,0.657c0.412,0.438,0.619,1.082,0.619,1.933c0,0.825-0.21,1.46-0.629,1.904s-0.99,0.667-1.714,0.667
		c-0.647,0-1.184-0.2-1.609-0.601C353.43,160.192,353.217,159.535,353.217,158.621z"/>
	<path fill="#3E454C" d="M378.292,160.64l-0.628-2.971h-0.152c-1.042,1.308-2.079,2.193-3.114,2.656
		c-1.034,0.464-2.326,0.695-3.875,0.695c-2.069,0-3.691-0.533-4.865-1.6c-1.175-1.066-1.762-2.583-1.762-4.551
		c0-4.215,3.37-6.424,10.112-6.627l3.541-0.115v-1.295c0-1.637-0.352-2.847-1.057-3.627c-0.704-0.781-1.831-1.172-3.38-1.172
		c-1.739,0-3.707,0.533-5.903,1.6l-0.971-2.418c1.027-0.559,2.154-0.996,3.38-1.314c1.225-0.316,2.453-0.476,3.685-0.476
		c2.488,0,4.332,0.552,5.532,1.657c1.199,1.104,1.8,2.875,1.8,5.312v14.244H378.292z M371.151,158.411
		c1.968,0,3.514-0.539,4.638-1.618c1.123-1.079,1.685-2.59,1.685-4.532v-1.885l-3.16,0.133c-2.514,0.089-4.326,0.479-5.438,1.171
		c-1.11,0.692-1.666,1.769-1.666,3.228c0,1.143,0.346,2.013,1.038,2.609C368.939,158.113,369.907,158.411,371.151,158.411z"/>
	<path fill="#3E454C" d="M398.262,161.021c-1.358,0-2.6-0.251-3.723-0.752c-1.124-0.502-2.066-1.272-2.828-2.314h-0.229
		c0.152,1.219,0.229,2.375,0.229,3.467v8.588h-3.161v-30.24h2.57l0.438,2.856h0.152c0.812-1.143,1.758-1.968,2.837-2.476
		s2.317-0.762,3.714-0.762c2.768,0,4.903,0.946,6.408,2.838c1.504,1.892,2.257,4.545,2.257,7.959c0,3.428-0.766,6.091-2.295,7.989
		C403.102,160.071,400.979,161.021,398.262,161.021z M397.805,142.073c-2.133,0-3.675,0.59-4.628,1.771
		c-0.951,1.181-1.44,3.06-1.466,5.637v0.704c0,2.934,0.488,5.031,1.466,6.294c0.978,1.264,2.546,1.896,4.704,1.896
		c1.803,0,3.215-0.73,4.237-2.19c1.021-1.46,1.533-3.472,1.533-6.036c0-2.603-0.512-4.6-1.533-5.989
		C401.096,142.768,399.659,142.073,397.805,142.073z"/>
	<path fill="#3E454C" d="M426.688,160.64l-0.628-2.971h-0.152c-1.042,1.308-2.079,2.193-3.114,2.656
		c-1.034,0.464-2.326,0.695-3.875,0.695c-2.069,0-3.691-0.533-4.865-1.6c-1.175-1.066-1.762-2.583-1.762-4.551
		c0-4.215,3.37-6.424,10.112-6.627l3.541-0.115v-1.295c0-1.637-0.352-2.847-1.057-3.627c-0.704-0.781-1.831-1.172-3.38-1.172
		c-1.739,0-3.707,0.533-5.903,1.6l-0.971-2.418c1.027-0.559,2.154-0.996,3.38-1.314c1.225-0.316,2.453-0.476,3.685-0.476
		c2.488,0,4.332,0.552,5.532,1.657c1.199,1.104,1.8,2.875,1.8,5.312v14.244H426.688z M419.546,158.411
		c1.968,0,3.514-0.539,4.638-1.618c1.123-1.079,1.685-2.59,1.685-4.532v-1.885l-3.16,0.133c-2.514,0.089-4.326,0.479-5.438,1.171
		c-1.11,0.692-1.666,1.769-1.666,3.228c0,1.143,0.346,2.013,1.038,2.609C417.334,158.113,418.302,158.411,419.546,158.411z"/>
	<path fill="#3E454C" d="M445.288,161.021c-3.021,0-5.36-0.93-7.018-2.79c-1.656-1.859-2.485-4.49-2.485-7.894
		c0-3.49,0.842-6.188,2.523-8.093c1.683-1.904,4.078-2.856,7.189-2.856c1.002,0,2.005,0.108,3.008,0.324s1.791,0.47,2.361,0.762
		l-0.971,2.685c-0.698-0.279-1.46-0.511-2.285-0.695c-0.825-0.184-1.556-0.276-2.189-0.276c-4.241,0-6.361,2.705-6.361,8.113
		c0,2.564,0.518,4.531,1.553,5.902c1.034,1.371,2.567,2.057,4.599,2.057c1.739,0,3.522-0.374,5.351-1.123v2.799
		C449.166,160.659,447.408,161.021,445.288,161.021z"/>
	<path fill="#3E454C" d="M471.199,160.64v-13.502c0-1.7-0.388-2.971-1.161-3.809c-0.775-0.838-1.987-1.256-3.638-1.256
		c-2.196,0-3.799,0.597-4.809,1.789c-1.009,1.194-1.514,3.149-1.514,5.865v10.912h-3.161v-29.631h3.161v8.969
		c0,1.08-0.051,1.975-0.152,2.686h0.19c0.622-1.003,1.508-1.793,2.656-2.371c1.149-0.577,2.46-0.866,3.933-0.866
		c2.552,0,4.466,0.606,5.741,1.818c1.276,1.213,1.914,3.14,1.914,5.78v13.615H471.199z"/>
	<path fill="#3E454C" d="M491.075,161.021c-3.084,0-5.519-0.939-7.303-2.818c-1.783-1.879-2.676-4.487-2.676-7.826
		c0-3.364,0.829-6.037,2.485-8.018c1.657-1.98,3.882-2.971,6.675-2.971c2.615,0,4.685,0.86,6.208,2.58
		c1.523,1.721,2.285,3.99,2.285,6.809v1.999h-14.378c0.063,2.45,0.683,4.311,1.857,5.579c1.174,1.271,2.828,1.904,4.961,1.904
		c2.246,0,4.468-0.469,6.664-1.408v2.818c-1.117,0.482-2.174,0.828-3.17,1.037C493.687,160.916,492.485,161.021,491.075,161.021z
		 M490.218,142.034c-1.676,0-3.012,0.547-4.009,1.639c-0.996,1.092-1.584,2.603-1.762,4.531h10.912c0-1.992-0.444-3.52-1.333-4.579
		C493.138,142.564,491.869,142.034,490.218,142.034z"/>
	<path fill="#3E454C" d="M505.086,158.621c0-0.851,0.193-1.495,0.581-1.933c0.387-0.438,0.942-0.657,1.666-0.657
		c0.736,0,1.311,0.219,1.724,0.657c0.412,0.438,0.619,1.082,0.619,1.933c0,0.825-0.21,1.46-0.629,1.904s-0.99,0.667-1.714,0.667
		c-0.647,0-1.184-0.2-1.609-0.601C505.299,160.192,505.086,159.535,505.086,158.621z"/>
	<path fill="#3E454C" d="M535.34,150.185c0,3.403-0.856,6.06-2.571,7.97c-1.713,1.911-4.081,2.866-7.103,2.866
		c-1.866,0-3.522-0.438-4.97-1.314c-1.447-0.875-2.565-2.133-3.352-3.77c-0.788-1.639-1.182-3.555-1.182-5.752
		c0-3.401,0.851-6.052,2.553-7.95c1.7-1.897,4.062-2.847,7.084-2.847c2.919,0,5.239,0.971,6.96,2.914
		C534.48,144.243,535.34,146.872,535.34,150.185z M519.439,150.185c0,2.666,0.533,4.698,1.6,6.094
		c1.066,1.397,2.635,2.096,4.704,2.096s3.641-0.695,4.713-2.086c1.073-1.39,1.609-3.424,1.609-6.104
		c0-2.652-0.536-4.668-1.609-6.046c-1.072-1.377-2.656-2.065-4.751-2.065c-2.069,0-3.631,0.679-4.685,2.037
		S519.439,147.494,519.439,150.185z"/>
	<path fill="#3E454C" d="M551.808,139.388c0.927,0,1.758,0.076,2.494,0.229l-0.438,2.933c-0.863-0.19-1.625-0.286-2.285-0.286
		c-1.688,0-3.133,0.686-4.332,2.057c-1.2,1.371-1.8,3.079-1.8,5.123v11.197h-3.161v-20.871h2.609l0.361,3.865h0.152
		c0.774-1.357,1.707-2.405,2.799-3.142S550.5,139.388,551.808,139.388z"/>
	<path fill="#3E454C" d="M576.693,139.769v2l-3.866,0.457c0.355,0.444,0.673,1.024,0.952,1.742c0.279,0.717,0.419,1.526,0.419,2.428
		c0,2.044-0.698,3.676-2.095,4.895s-3.313,1.828-5.751,1.828c-0.622,0-1.206-0.051-1.752-0.152
		c-1.346,0.711-2.019,1.605-2.019,2.685c0,0.571,0.234,0.993,0.705,1.267c0.469,0.272,1.275,0.409,2.418,0.409h3.694
		c2.26,0,3.996,0.476,5.208,1.429c1.213,0.951,1.818,2.335,1.818,4.15c0,2.311-0.927,4.072-2.779,5.285
		c-1.854,1.212-4.559,1.818-8.113,1.818c-2.729,0-4.833-0.508-6.312-1.523c-1.479-1.016-2.219-2.45-2.219-4.304
		c0-1.27,0.406-2.368,1.219-3.294c0.812-0.927,1.955-1.556,3.428-1.886c-0.533-0.241-0.98-0.615-1.342-1.124
		c-0.362-0.507-0.543-1.098-0.543-1.771c0-0.762,0.203-1.429,0.609-1.999c0.406-0.572,1.047-1.124,1.924-1.657
		c-1.08-0.444-1.959-1.2-2.638-2.267c-0.68-1.066-1.019-2.285-1.019-3.656c0-2.285,0.686-4.046,2.057-5.284
		c1.371-1.237,3.312-1.856,5.826-1.856c1.092,0,2.076,0.127,2.952,0.381H576.693z M560.048,164.144c0,1.13,0.477,1.986,1.429,2.57
		s2.316,0.877,4.095,0.877c2.652,0,4.617-0.397,5.894-1.19c1.275-0.794,1.913-1.87,1.913-3.228c0-1.131-0.349-1.914-1.047-2.353
		c-0.698-0.438-2.013-0.657-3.941-0.657h-3.79c-1.435,0-2.552,0.344-3.352,1.029S560.048,162.861,560.048,164.144z M561.763,146.452
		c0,1.461,0.412,2.565,1.237,3.314s1.974,1.123,3.446,1.123c3.086,0,4.628-1.498,4.628-4.494c0-3.136-1.562-4.703-4.685-4.703
		c-1.485,0-2.628,0.399-3.428,1.199S561.763,144.879,561.763,146.452z"/>
</g>
</svg>
