<?xml version="1.0" encoding="utf-8"?>
<!-- Generator: Adobe Illustrator 15.0.0, SVG Export Plug-In . SVG Version: 6.00 Build 0)  -->
<!DOCTYPE svg PUBLIC "-//W3C//DTD SVG 1.1//EN" "http://www.w3.org/Graphics/SVG/1.1/DTD/svg11.dtd">
<svg version="1.1" id="Layer_1" xmlns="http://www.w3.org/2000/svg" xmlns:xlink="http://www.w3.org/1999/xlink" x="0px" y="0px"
	 width="463px" height="756px" viewBox="127.4 -582 463 756" enable-background="new 127.4 -582 463 756" xml:space="preserve">
<g>
	<path fill="#3E454C" d="M179.1,95h-6.9L148,34.1V95h-9.9V22.9h15.7l21.9,56.3L198,22.9h15.7V95h-9.9V34.1L179.1,95z"/>
	<path fill="#3E454C" d="M230.6,95V22.9h9.9V95H230.6z"/>
	<path fill="#3E454C" d="M257.5,95V22.9h9.9v63.2h31.301V95H257.5z"/>
	<path fill="#3E454C" d="M354,95L348.3,79.7h-30.7L312.1,95h-10.8l27.9-72.1h8.699L365.4,95H354z M321,70.8h24.201L333.1,37.9H333
		L321,70.8z"/>
	<path fill="#3E454C" d="M408.6,63.9V55h28.2v27.4c-6.9,8.8-17.7,13.8-29.6,13.8c-22,0-38.701-14.9-38.701-37.3
		c0-21.3,17.4-37.3,38.701-37.3c11.1,0,21,4.9,27.898,12.8l-7,5.8c-5-5.7-12.699-9.7-20.898-9.7C391,30.5,379,42.5,379,58.9
		c0,17.5,11.701,28.4,28.201,28.4c7.6,0,14.6-2.7,19.699-7.5v-16h-18.3V63.9z"/>
	<path fill="#3E454C" d="M491.201,95l-21.602-30.5h-7.398V95h-9.9V22.9h21.4c11,0,24.6,5.8,24.6,20.7c0,12.3-8.801,18.4-17.6,20.3
		L503.599,95H491.201z M473.201,31.8h-11v23.9h9c9.6,0,16.699-3.5,16.699-11.7C487.8,36.6,481.9,31.8,473.201,31.8z"/>
	<path fill="#3E454C" d="M544.8,96.2c-21,0-37.1-16.7-37.1-37.3s16.1-37.3,37.1-37.3s37.1,16.7,37.1,37.3
		C581.8,79.5,565.8,96.2,544.8,96.2z M544.8,30.5c-15.301,0-26.6,12.5-26.6,28.4s11.199,28.4,26.6,28.4s26.6-12.5,26.6-28.4
		S560.099,30.5,544.8,30.5z"/>
</g>
<g>
	<path fill="#C2FF17" d="M559.242-56.967L146.771-249.226c-5.393-2.452-8.827-7.85-8.827-13.731v-240.324
		c0-11.279,11.771-18.636,21.58-13.732l412.471,192.256c5.396,2.452,8.827,7.848,8.827,13.734v240.319
		C580.821-59.419,569.542-52.062,559.242-56.967z"/>
	<g>
		<path fill="#31BCA4" d="M573.464-317.4L137.943-114.351v99.073c0,11.279,11.771,18.636,21.58,13.731l412.471-192.258
			c5.396-2.453,8.827-7.845,8.827-13.732v-103.486c0-3.434-0.979-6.377-2.452-8.83l0,0l0,0l0,0l0,0
			c-0.979-1.961-2.94-2.941-4.904-4.414c0.981,0.982,1.473,1.961,1.473,3.434C574.937-319.361,574.446-318.38,573.464-317.4z"/>
	</g>
	<g>
		<path fill="#40D37B" d="M145.791-256.582l435.521-203.05v-99.07c0-11.282-11.771-18.639-21.579-13.734L146.771-380.177
			c-5.393,2.452-8.827,7.848-8.827,13.732v103.488c0,3.429,0.982,6.375,2.452,8.827l0,0l0,0l0,0l0,0
			c0.982,1.959,2.943,2.94,4.905,4.411c-0.982-0.977-1.471-1.959-1.471-3.429C143.83-254.623,144.318-255.601,145.791-256.582z"/>
	</g>
</g>
<g>
	<path fill="#3E454C" d="M160.86,139.691v-10.388c0-1.272-0.272-2.227-0.815-2.863c-0.544-0.636-1.389-0.954-2.535-0.954
		c-1.506,0-2.618,0.432-3.336,1.297c-0.719,0.864-1.078,2.194-1.078,3.991v8.917h-2.418v-10.388c0-1.272-0.272-2.227-0.816-2.863
		c-0.544-0.636-1.394-0.954-2.55-0.954c-1.515,0-2.625,0.454-3.329,1.362c-0.705,0.908-1.056,2.396-1.056,4.465v8.378h-2.418
		v-15.968h1.967l0.393,2.185h0.117c0.457-0.776,1.1-1.384,1.931-1.821c0.83-0.437,1.76-0.655,2.79-0.655
		c2.496,0,4.128,0.903,4.895,2.71h0.117c0.476-0.835,1.166-1.495,2.069-1.981c0.903-0.485,1.933-0.729,3.089-0.729
		c1.807,0,3.159,0.464,4.058,1.392c0.898,0.928,1.348,2.411,1.348,4.451v10.417H160.86z"/>
	<path fill="#3E454C" d="M169.132,119.396c0-0.554,0.136-0.96,0.408-1.217c0.272-0.258,0.612-0.387,1.02-0.387
		c0.388,0,0.724,0.132,1.005,0.394c0.281,0.263,0.422,0.666,0.422,1.21s-0.141,0.949-0.422,1.216
		c-0.282,0.268-0.617,0.401-1.005,0.401c-0.408,0-0.748-0.134-1.02-0.401C169.268,120.346,169.132,119.94,169.132,119.396z
		 M171.754,139.691h-2.418v-15.968h2.418V139.691z"/>
	<path fill="#3E454C" d="M180.375,139.691h-2.418v-22.67h2.418V139.691z"/>
	<path fill="#3E454C" d="M196.397,139.691l-0.48-2.272H195.8c-0.796,1-1.59,1.678-2.382,2.032c-0.792,0.354-1.78,0.531-2.965,0.531
		c-1.583,0-2.824-0.407-3.722-1.224c-0.898-0.815-1.348-1.977-1.348-3.482c0-3.225,2.579-4.914,7.736-5.069l2.71-0.088v-0.99
		c0-1.254-0.27-2.179-0.809-2.776c-0.539-0.597-1.401-0.896-2.586-0.896c-1.331,0-2.836,0.408-4.516,1.224l-0.743-1.851
		c0.787-0.427,1.648-0.762,2.586-1.005s1.877-0.364,2.819-0.364c1.903,0,3.314,0.423,4.232,1.268s1.377,2.2,1.377,4.064v10.898
		H196.397z M190.934,137.986c1.505,0,2.688-0.412,3.548-1.238c0.859-0.825,1.289-1.981,1.289-3.467v-1.442l-2.418,0.102
		c-1.923,0.068-3.31,0.367-4.16,0.896c-0.85,0.53-1.274,1.354-1.274,2.47c0,0.874,0.264,1.54,0.794,1.996
		C189.242,137.759,189.982,137.986,190.934,137.986z"/>
	<path fill="#3E454C" d="M217.315,123.724v1.529l-2.958,0.35c0.272,0.34,0.515,0.784,0.729,1.333
		c0.213,0.549,0.321,1.168,0.321,1.857c0,1.564-0.535,2.812-1.603,3.745c-1.068,0.932-2.535,1.398-4.4,1.398
		c-0.476,0-0.923-0.039-1.34-0.116c-1.03,0.544-1.544,1.229-1.544,2.054c0,0.438,0.18,0.761,0.539,0.969
		c0.359,0.209,0.976,0.313,1.851,0.313h2.826c1.729,0,3.057,0.364,3.985,1.093c0.927,0.729,1.392,1.787,1.392,3.176
		c0,1.769-0.709,3.116-2.127,4.043c-1.418,0.928-3.487,1.392-6.207,1.392c-2.088,0-3.698-0.389-4.83-1.165
		c-1.132-0.777-1.697-1.875-1.697-3.293c0-0.972,0.311-1.812,0.932-2.521s1.496-1.189,2.623-1.442
		c-0.408-0.185-0.75-0.471-1.027-0.859s-0.416-0.84-0.416-1.355c0-0.583,0.155-1.093,0.466-1.529
		c0.311-0.438,0.801-0.86,1.472-1.268c-0.826-0.34-1.499-0.918-2.018-1.734c-0.52-0.815-0.779-1.748-0.779-2.797
		c0-1.748,0.524-3.096,1.573-4.043c1.049-0.947,2.535-1.421,4.458-1.421c0.835,0,1.588,0.098,2.258,0.292H217.315z M204.582,142.372
		c0,0.864,0.364,1.521,1.093,1.967c0.729,0.447,1.772,0.671,3.132,0.671c2.03,0,3.533-0.304,4.509-0.911s1.464-1.431,1.464-2.47
		c0-0.864-0.268-1.464-0.802-1.799s-1.54-0.503-3.016-0.503h-2.899c-1.098,0-1.952,0.263-2.564,0.787
		C204.888,140.639,204.582,141.391,204.582,142.372z M205.893,128.837c0,1.117,0.315,1.962,0.947,2.535
		c0.631,0.573,1.51,0.859,2.637,0.859c2.36,0,3.541-1.146,3.541-3.438c0-2.398-1.195-3.599-3.584-3.599
		c-1.136,0-2.011,0.307-2.623,0.918C206.199,126.725,205.893,127.633,205.893,128.837z"/>
	<path fill="#3E454C" d="M228.953,123.432c0.708,0,1.345,0.059,1.908,0.175l-0.335,2.244c-0.661-0.146-1.243-0.219-1.748-0.219
		c-1.292,0-2.397,0.524-3.315,1.573c-0.917,1.049-1.376,2.355-1.376,3.919v8.567h-2.418v-15.968h1.996l0.277,2.957h0.117
		c0.592-1.039,1.306-1.841,2.142-2.404C227.034,123.714,227.952,123.432,228.953,123.432z"/>
	<path fill="#3E454C" d="M248.705,131.692c0,2.604-0.655,4.636-1.967,6.098c-1.311,1.462-3.123,2.192-5.434,2.192
		c-1.428,0-2.695-0.335-3.803-1.005s-1.962-1.632-2.564-2.885c-0.602-1.253-0.903-2.72-0.903-4.4c0-2.603,0.651-4.63,1.953-6.082
		c1.301-1.452,3.108-2.179,5.42-2.179c2.234,0,4.009,0.743,5.325,2.229C248.047,127.147,248.705,129.157,248.705,131.692z
		 M236.54,131.692c0,2.04,0.408,3.594,1.224,4.662c0.816,1.069,2.015,1.604,3.599,1.604c1.583,0,2.785-0.532,3.606-1.596
		s1.231-2.62,1.231-4.67c0-2.029-0.41-3.571-1.231-4.626c-0.821-1.054-2.032-1.58-3.635-1.58c-1.583,0-2.778,0.52-3.584,1.559
		S236.54,129.634,236.54,131.692z"/>
	<path fill="#3E454C" d="M253.669,138.147c0-0.651,0.148-1.145,0.444-1.479s0.721-0.502,1.275-0.502
		c0.563,0,1.003,0.167,1.319,0.502c0.315,0.335,0.473,0.828,0.473,1.479c0,0.631-0.16,1.116-0.48,1.456
		c-0.321,0.341-0.758,0.511-1.312,0.511c-0.495,0-0.906-0.153-1.231-0.459C253.832,139.349,253.669,138.847,253.669,138.147z"/>
	<path fill="#3E454C" d="M262.83,119.396c0-0.554,0.136-0.96,0.408-1.217c0.272-0.258,0.612-0.387,1.02-0.387
		c0.388,0,0.724,0.132,1.005,0.394c0.281,0.263,0.422,0.666,0.422,1.21s-0.141,0.949-0.422,1.216
		c-0.282,0.268-0.617,0.401-1.005,0.401c-0.408,0-0.748-0.134-1.02-0.401C262.965,120.346,262.83,119.94,262.83,119.396z
		 M265.452,139.691h-2.418v-15.968h2.418V139.691z"/>
	<path fill="#3E454C" d="M282.581,139.691v-10.33c0-1.301-0.296-2.272-0.889-2.914c-0.593-0.641-1.52-0.961-2.783-0.961
		c-1.671,0-2.895,0.451-3.671,1.354c-0.777,0.903-1.166,2.395-1.166,4.473v8.378h-2.418v-15.968h1.967l0.393,2.185h0.117
		c0.496-0.786,1.189-1.396,2.083-1.828c0.894-0.432,1.889-0.648,2.987-0.648c1.923,0,3.37,0.464,4.341,1.392
		s1.457,2.411,1.457,4.451v10.417H282.581z"/>
	<path fill="#3E454C" d="M297.423,139.982c-2.312,0-4.101-0.711-5.368-2.134c-1.268-1.423-1.902-3.437-1.902-6.039
		c0-2.671,0.644-4.735,1.93-6.192c1.287-1.457,3.12-2.186,5.5-2.186c0.768,0,1.535,0.083,2.303,0.248
		c0.767,0.165,1.369,0.359,1.807,0.583l-0.743,2.054c-0.534-0.214-1.117-0.391-1.749-0.531c-0.631-0.141-1.189-0.212-1.675-0.212
		c-3.244,0-4.866,2.069-4.866,6.207c0,1.962,0.396,3.468,1.188,4.517c0.791,1.049,1.964,1.573,3.519,1.573
		c1.33,0,2.695-0.286,4.094-0.859v2.142C300.391,139.706,299.045,139.982,297.423,139.982z"/>
	<path fill="#3E454C" d="M308.595,123.724v10.358c0,1.302,0.296,2.272,0.889,2.914c0.593,0.641,1.521,0.962,2.783,0.962
		c1.67,0,2.892-0.457,3.664-1.37s1.158-2.403,1.158-4.473v-8.392h2.419v15.968h-1.996l-0.35-2.142h-0.132
		c-0.495,0.787-1.183,1.389-2.062,1.807c-0.879,0.417-1.882,0.626-3.009,0.626c-1.942,0-3.396-0.461-4.363-1.384
		s-1.449-2.398-1.449-4.429v-10.446H308.595z"/>
	<path fill="#3E454C" d="M333.14,123.461c2.099,0,3.728,0.717,4.889,2.149c1.16,1.433,1.741,3.46,1.741,6.082
		c0,2.623-0.586,4.66-1.756,6.112c-1.171,1.452-2.795,2.178-4.874,2.178c-1.039,0-1.988-0.191-2.848-0.575s-1.581-0.974-2.164-1.771
		h-0.175l-0.51,2.055h-1.733v-22.67h2.418v5.507c0,1.233-0.039,2.341-0.116,3.322h0.116
		C329.255,124.258,330.926,123.461,333.14,123.461z M332.791,125.486c-1.651,0-2.841,0.474-3.569,1.42
		c-0.729,0.947-1.093,2.543-1.093,4.786c0,2.244,0.374,3.85,1.122,4.815c0.748,0.967,1.947,1.45,3.599,1.45
		c1.486,0,2.594-0.542,3.322-1.625s1.093-2.64,1.093-4.669c0-2.079-0.364-3.628-1.093-4.648
		C335.443,125.996,334.316,125.486,332.791,125.486z"/>
	<path fill="#3E454C" d="M354.888,139.691l-0.48-2.272h-0.116c-0.797,1-1.591,1.678-2.383,2.032
		c-0.791,0.354-1.779,0.531-2.965,0.531c-1.583,0-2.824-0.407-3.723-1.224c-0.898-0.815-1.348-1.977-1.348-3.482
		c0-3.225,2.579-4.914,7.736-5.069l2.71-0.088v-0.99c0-1.254-0.27-2.179-0.809-2.776c-0.539-0.597-1.4-0.896-2.586-0.896
		c-1.331,0-2.836,0.408-4.517,1.224l-0.743-1.851c0.787-0.427,1.649-0.762,2.587-1.005c0.937-0.243,1.877-0.364,2.818-0.364
		c1.904,0,3.315,0.423,4.232,1.268c0.918,0.845,1.377,2.2,1.377,4.064v10.898H354.888z M349.425,137.986
		c1.505,0,2.688-0.412,3.547-1.238c0.86-0.825,1.29-1.981,1.29-3.467v-1.442l-2.419,0.102c-1.923,0.068-3.31,0.367-4.159,0.896
		c-0.851,0.53-1.275,1.354-1.275,2.47c0,0.874,0.265,1.54,0.794,1.996C347.732,137.759,348.473,137.986,349.425,137.986z"/>
	<path fill="#3E454C" d="M367.895,137.986c0.428,0,0.84-0.031,1.238-0.095c0.398-0.062,0.714-0.128,0.947-0.196v1.851
		c-0.263,0.126-0.648,0.23-1.158,0.313c-0.51,0.082-0.969,0.123-1.377,0.123c-3.089,0-4.633-1.626-4.633-4.881v-9.499h-2.288v-1.165
		l2.288-1.006l1.02-3.409h1.398v3.701h4.634v1.879h-4.634V135c0,0.962,0.229,1.7,0.686,2.215
		C366.472,137.729,367.098,137.986,367.895,137.986z"/>
	<path fill="#3E454C" d="M388.127,131.692c0,2.604-0.655,4.636-1.967,6.098s-3.123,2.192-5.435,2.192
		c-1.428,0-2.695-0.335-3.803-1.005c-1.106-0.67-1.962-1.632-2.563-2.885c-0.603-1.253-0.903-2.72-0.903-4.4
		c0-2.603,0.65-4.63,1.952-6.082s3.108-2.179,5.42-2.179c2.233,0,4.009,0.743,5.325,2.229
		C387.469,127.147,388.127,129.157,388.127,131.692z M375.962,131.692c0,2.04,0.408,3.594,1.224,4.662
		c0.815,1.069,2.016,1.604,3.599,1.604s2.785-0.532,3.605-1.596c0.821-1.063,1.231-2.62,1.231-4.67c0-2.029-0.41-3.571-1.231-4.626
		c-0.82-1.054-2.032-1.58-3.635-1.58c-1.583,0-2.777,0.52-3.584,1.559S375.962,129.634,375.962,131.692z"/>
	<path fill="#3E454C" d="M400.726,123.432c0.709,0,1.346,0.059,1.909,0.175l-0.335,2.244c-0.661-0.146-1.244-0.219-1.749-0.219
		c-1.292,0-2.396,0.524-3.314,1.573s-1.377,2.355-1.377,3.919v8.567h-2.418v-15.968h1.996l0.276,2.957h0.116
		c0.593-1.039,1.307-1.841,2.143-2.404C398.808,123.714,399.726,123.432,400.726,123.432z"/>
	<path fill="#3E454C" d="M406.346,138.147c0-0.651,0.147-1.145,0.444-1.479c0.296-0.335,0.721-0.502,1.274-0.502
		c0.563,0,1.003,0.167,1.318,0.502s0.474,0.828,0.474,1.479c0,0.631-0.16,1.116-0.48,1.456c-0.32,0.341-0.758,0.511-1.312,0.511
		c-0.495,0-0.905-0.153-1.231-0.459C406.508,139.349,406.346,138.847,406.346,138.147z"/>
	<path fill="#3E454C" d="M425.529,139.691l-0.48-2.272h-0.116c-0.797,1-1.591,1.678-2.383,2.032
		c-0.791,0.354-1.779,0.531-2.965,0.531c-1.583,0-2.824-0.407-3.723-1.224c-0.898-0.815-1.348-1.977-1.348-3.482
		c0-3.225,2.579-4.914,7.736-5.069l2.71-0.088v-0.99c0-1.254-0.27-2.179-0.809-2.776c-0.539-0.597-1.4-0.896-2.586-0.896
		c-1.331,0-2.836,0.408-4.517,1.224l-0.743-1.851c0.787-0.427,1.649-0.762,2.587-1.005c0.937-0.243,1.877-0.364,2.818-0.364
		c1.904,0,3.315,0.423,4.232,1.268c0.918,0.845,1.377,2.2,1.377,4.064v10.898H425.529z M420.066,137.986
		c1.505,0,2.688-0.412,3.547-1.238c0.86-0.825,1.29-1.981,1.29-3.467v-1.442l-2.419,0.102c-1.923,0.068-3.31,0.367-4.159,0.896
		c-0.851,0.53-1.275,1.354-1.275,2.47c0,0.874,0.265,1.54,0.794,1.996C418.373,137.759,419.114,137.986,420.066,137.986z"/>
	<path fill="#3E454C" d="M440.808,139.982c-1.039,0-1.988-0.191-2.848-0.575s-1.581-0.974-2.164-1.771h-0.175
		c0.117,0.933,0.175,1.816,0.175,2.652v6.57h-2.418v-23.136h1.967l0.335,2.185h0.116c0.622-0.874,1.346-1.505,2.171-1.894
		c0.826-0.389,1.772-0.583,2.841-0.583c2.118,0,3.752,0.724,4.903,2.171c1.15,1.447,1.727,3.478,1.727,6.09
		c0,2.623-0.586,4.66-1.756,6.112C444.511,139.257,442.887,139.982,440.808,139.982z M440.458,125.486
		c-1.632,0-2.812,0.451-3.54,1.354s-1.103,2.341-1.122,4.312v0.539c0,2.244,0.374,3.85,1.122,4.815
		c0.748,0.967,1.947,1.45,3.599,1.45c1.379,0,2.46-0.559,3.242-1.676c0.781-1.117,1.173-2.656,1.173-4.618
		c0-1.991-0.392-3.519-1.173-4.583C442.977,126.018,441.876,125.486,440.458,125.486z"/>
	<path fill="#3E454C" d="M462.556,139.691l-0.48-2.272h-0.116c-0.797,1-1.591,1.678-2.383,2.032
		c-0.791,0.354-1.779,0.531-2.965,0.531c-1.583,0-2.824-0.407-3.723-1.224c-0.898-0.815-1.348-1.977-1.348-3.482
		c0-3.225,2.579-4.914,7.736-5.069l2.71-0.088v-0.99c0-1.254-0.27-2.179-0.809-2.776c-0.539-0.597-1.4-0.896-2.586-0.896
		c-1.331,0-2.836,0.408-4.517,1.224l-0.743-1.851c0.787-0.427,1.649-0.762,2.587-1.005c0.937-0.243,1.877-0.364,2.818-0.364
		c1.904,0,3.315,0.423,4.232,1.268c0.918,0.845,1.377,2.2,1.377,4.064v10.898H462.556z M457.093,137.986
		c1.505,0,2.688-0.412,3.547-1.238c0.86-0.825,1.29-1.981,1.29-3.467v-1.442l-2.419,0.102c-1.923,0.068-3.31,0.367-4.159,0.896
		c-0.851,0.53-1.275,1.354-1.275,2.47c0,0.874,0.265,1.54,0.794,1.996C455.4,137.759,456.141,137.986,457.093,137.986z"/>
	<path fill="#3E454C" d="M476.787,139.982c-2.312,0-4.101-0.711-5.368-2.134s-1.901-3.437-1.901-6.039
		c0-2.671,0.643-4.735,1.93-6.192s3.12-2.186,5.5-2.186c0.768,0,1.535,0.083,2.303,0.248c0.767,0.165,1.369,0.359,1.807,0.583
		l-0.743,2.054c-0.534-0.214-1.117-0.391-1.749-0.531c-0.631-0.141-1.189-0.212-1.675-0.212c-3.244,0-4.866,2.069-4.866,6.207
		c0,1.962,0.396,3.468,1.188,4.517c0.791,1.049,1.964,1.573,3.519,1.573c1.33,0,2.695-0.286,4.094-0.859v2.142
		C479.754,139.706,478.409,139.982,476.787,139.982z"/>
	<path fill="#3E454C" d="M496.612,139.691v-10.33c0-1.301-0.296-2.272-0.889-2.914c-0.593-0.641-1.521-0.961-2.783-0.961
		c-1.68,0-2.906,0.456-3.679,1.369c-0.771,0.913-1.158,2.409-1.158,4.487v8.349h-2.418v-22.67h2.418v6.862
		c0,0.825-0.039,1.51-0.116,2.054h0.146c0.476-0.767,1.153-1.371,2.032-1.813s1.882-0.663,3.009-0.663
		c1.952,0,3.417,0.464,4.393,1.392c0.977,0.928,1.465,2.401,1.465,4.422v10.417H496.612z"/>
	<path fill="#3E454C" d="M511.818,139.982c-2.36,0-4.223-0.719-5.587-2.156c-1.365-1.438-2.047-3.433-2.047-5.987
		c0-2.574,0.634-4.619,1.901-6.134c1.268-1.516,2.97-2.273,5.106-2.273c2.001,0,3.584,0.658,4.749,1.975
		c1.166,1.316,1.749,3.052,1.749,5.208v1.53h-11c0.048,1.875,0.521,3.298,1.42,4.269c0.898,0.972,2.164,1.457,3.796,1.457
		c1.719,0,3.419-0.359,5.099-1.078v2.156c-0.854,0.369-1.663,0.634-2.426,0.794C513.817,139.902,512.896,139.982,511.818,139.982z
		 M511.163,125.457c-1.282,0-2.305,0.418-3.067,1.253c-0.762,0.835-1.211,1.991-1.348,3.468h8.349c0-1.525-0.34-2.693-1.02-3.504
		C513.396,125.862,512.425,125.457,511.163,125.457z"/>
	<path fill="#3E454C" d="M522.538,138.147c0-0.651,0.147-1.145,0.444-1.479c0.296-0.335,0.721-0.502,1.274-0.502
		c0.563,0,1.003,0.167,1.318,0.502s0.474,0.828,0.474,1.479c0,0.631-0.16,1.116-0.48,1.456c-0.32,0.341-0.758,0.511-1.312,0.511
		c-0.495,0-0.905-0.153-1.231-0.459C522.7,139.349,522.538,138.847,522.538,138.147z"/>
	<path fill="#3E454C" d="M545.684,131.692c0,2.604-0.655,4.636-1.967,6.098s-3.123,2.192-5.435,2.192
		c-1.428,0-2.695-0.335-3.803-1.005c-1.106-0.67-1.962-1.632-2.563-2.885c-0.603-1.253-0.903-2.72-0.903-4.4
		c0-2.603,0.65-4.63,1.952-6.082s3.108-2.179,5.42-2.179c2.233,0,4.009,0.743,5.325,2.229
		C545.026,127.147,545.684,129.157,545.684,131.692z M533.519,131.692c0,2.04,0.408,3.594,1.224,4.662
		c0.815,1.069,2.016,1.604,3.599,1.604s2.785-0.532,3.605-1.596c0.821-1.063,1.231-2.62,1.231-4.67c0-2.029-0.41-3.571-1.231-4.626
		c-0.82-1.054-2.032-1.58-3.635-1.58c-1.583,0-2.777,0.52-3.584,1.559S533.519,129.634,533.519,131.692z"/>
	<path fill="#3E454C" d="M558.283,123.432c0.709,0,1.346,0.059,1.909,0.175l-0.335,2.244c-0.661-0.146-1.244-0.219-1.749-0.219
		c-1.292,0-2.396,0.524-3.314,1.573s-1.377,2.355-1.377,3.919v8.567h-2.418v-15.968h1.996l0.276,2.957h0.116
		c0.593-1.039,1.307-1.841,2.143-2.404C556.365,123.714,557.283,123.432,558.283,123.432z"/>
	<path fill="#3E454C" d="M577.321,123.724v1.529l-2.957,0.35c0.271,0.34,0.515,0.784,0.729,1.333c0.213,0.549,0.32,1.168,0.32,1.857
		c0,1.564-0.534,2.812-1.603,3.745c-1.069,0.932-2.535,1.398-4.4,1.398c-0.476,0-0.923-0.039-1.34-0.116
		c-1.03,0.544-1.545,1.229-1.545,2.054c0,0.438,0.18,0.761,0.539,0.969c0.359,0.209,0.977,0.313,1.851,0.313h2.826
		c1.729,0,3.058,0.364,3.985,1.093c0.927,0.729,1.391,1.787,1.391,3.176c0,1.769-0.709,3.116-2.127,4.043
		c-1.418,0.928-3.487,1.392-6.206,1.392c-2.089,0-3.699-0.389-4.83-1.165c-1.132-0.777-1.697-1.875-1.697-3.293
		c0-0.972,0.311-1.812,0.933-2.521c0.621-0.709,1.495-1.189,2.622-1.442c-0.408-0.185-0.75-0.471-1.027-0.859
		c-0.276-0.389-0.415-0.84-0.415-1.355c0-0.583,0.155-1.093,0.467-1.529c0.311-0.438,0.801-0.86,1.471-1.268
		c-0.825-0.34-1.498-0.918-2.018-1.734c-0.52-0.815-0.779-1.748-0.779-2.797c0-1.748,0.524-3.096,1.573-4.043
		s2.535-1.421,4.458-1.421c0.836,0,1.589,0.098,2.259,0.292H577.321z M564.587,142.372c0,0.864,0.364,1.521,1.093,1.967
		c0.729,0.447,1.772,0.671,3.132,0.671c2.03,0,3.533-0.304,4.51-0.911c0.976-0.607,1.464-1.431,1.464-2.47
		c0-0.864-0.267-1.464-0.801-1.799s-1.54-0.503-3.017-0.503h-2.898c-1.099,0-1.953,0.263-2.564,0.787
		C564.893,140.639,564.587,141.391,564.587,142.372z M565.899,128.837c0,1.117,0.315,1.962,0.946,2.535
		c0.632,0.573,1.511,0.859,2.638,0.859c2.36,0,3.54-1.146,3.54-3.438c0-2.398-1.194-3.599-3.584-3.599
		c-1.137,0-2.011,0.307-2.622,0.918C566.205,126.725,565.899,127.633,565.899,128.837z"/>
</g>
</svg>
