<svg xmlns="http://www.w3.org/2000/svg" width="581.8" height="117" viewBox="0 0 581.8 117"><path d="M179.1 95h-6.9L148 34.1V95h-9.9V22.9h15.7l21.9 56.3L198 22.9h15.7V95h-9.9V34.1L179.1 95zm51.5 0V22.9h9.9V95h-9.9zm26.9 0V22.9h9.9v63.2h31.301V95H257.5zm96.5 0l-5.7-15.3h-30.7L312.1 95h-10.8l27.9-72.1h8.699L365.4 95H354zm-33-24.2h24.201L333.1 37.9h-.1l-12 32.9zm87.6-6.9V55h28.2v27.4c-6.9 8.8-17.7 13.8-29.6 13.8-22 0-38.701-14.9-38.701-37.3 0-21.3 17.4-37.3 38.701-37.3 11.1 0 21 4.9 27.898 12.8l-7 5.8c-5-5.7-12.699-9.7-20.898-9.7-16.2 0-28.2 12-28.2 28.4 0 17.5 11.701 28.4 28.201 28.4 7.6 0 14.6-2.7 19.699-7.5v-16h-18.3v.1zM491.201 95l-21.602-30.5h-7.398V95h-9.9V22.9h21.4c11 0 24.6 5.8 24.6 20.7 0 12.3-8.801 18.4-17.6 20.3L503.599 95h-12.398zm-18-63.2h-11v23.9h9c9.6 0 16.699-3.5 16.699-11.7-.1-7.4-6-12.2-14.699-12.2zM544.8 96.2c-21 0-37.1-16.7-37.1-37.3s16.1-37.3 37.1-37.3 37.1 16.7 37.1 37.3c-.1 20.6-16.1 37.3-37.1 37.3zm0-65.7c-15.301 0-26.6 12.5-26.6 28.4s11.199 28.4 26.6 28.4 26.6-12.5 26.6-28.4-11.301-28.4-26.6-28.4z" fill="#3E454C"/><path fill="#C2FF17" d="M85.9 105.4L1.8 66.2C.7 65.7 0 64.6 0 63.4v-49c0-2.3 2.4-3.8 4.4-2.8l84.1 39.2c1.1.5 1.8 1.6 1.8 2.8v49c0 2.3-2.3 3.8-4.4 2.8z"/><path fill="#31BCA4" d="M88.8 52.3L0 93.7v20.2c0 2.3 2.4 3.8 4.4 2.8l84.1-39.2c1.1-.5 1.8-1.6 1.8-2.8V53.6c0-.7-.2-1.3-.5-1.8-.2-.4-.6-.6-1-.9.2.2.3.4.3.7 0 .3-.1.5-.3.7z"/><path fill="#40D37B" d="M1.6 64.7l88.8-41.4V3.1C90.4.8 88-.7 86 .3L1.8 39.5C.7 40 0 41.1 0 42.3v21.1c0 .699.2 1.3.5 1.8.2.399.6.6 1 .899-.2-.199-.3-.399-.3-.699 0-.3.1-.5.4-.7z"/></svg>