<svg viewBox="0 0 104 31" xmlns="http://www.w3.org/2000/svg" xmlns:xlink="http://www.w3.org/1999/xlink"><defs><linearGradient id="a"><stop stop-color="#5373B4" offset="0"/><stop stop-color="#7C95C6" offset="1"/></linearGradient><linearGradient id="c" x1="31.474" x2="31.474" y1="24.821" y2="26.773" gradientUnits="userSpaceOnUse" xlink:href="#a"/><linearGradient id="f" x1="31.474" x2="31.474" y1="24.821" y2="26.773" gradientTransform="matrix(.6816 0 0 1.0248 72.391 -.918)" gradientUnits="userSpaceOnUse" xlink:href="#a"/><linearGradient id="e" x1="56.295" x2="56.295" y1="24.622" y2="26.574" gradientUnits="userSpaceOnUse" xlink:href="#a"/><linearGradient id="d" x1="49.067" x2="48.956" y1="19.719" y2="9.523" gradientTransform="matrix(.97968 0 0 1.0207 -.256 -.256)" gradientUnits="userSpaceOnUse"><stop stop-color="#C0CCE3" offset="0"/><stop stop-color="#EEF1F7" offset="1"/></linearGradient><filter id="b" x="-.011" y="-.045" width="1.021" height="1.091" color-interpolation-filters="sRGB"><feGaussianBlur stdDeviation=".453"/></filter></defs><path transform="translate(-2.576 -27.848)" d="M13.609 32.203v6.863h-.05a3.82 3.82 0 00-1.673-1.506 4.802 4.802 0 00-2.205-.527c-.962 0-1.807.203-2.533.607a5.478 5.478 0 00-1.824 1.557c-.473.651-.835 1.41-1.088 2.272a9.74 9.74 0 00-.356 2.638c0 .95.12 1.865.356 2.744a8 8 0 001.088 2.35 5.557 5.557 0 001.85 1.611c.743.387 1.604.58 2.583.58.862 0 1.632-.158 2.307-.474.692-.335 1.25-.873 1.672-1.612h.05v1.743h3.42V32.203zm12.875 4.83c-1.03 0-1.96.176-2.787.527a5.887 5.887 0 00-2.127 1.454c-.591.615-1.048 1.372-1.37 2.269-.32.88-.48 1.866-.48 2.957s.16 2.075.48 2.955a6.62 6.62 0 001.37 2.27 6.048 6.048 0 002.127 1.425c.827.335 1.757.502 2.787.502s1.96-.167 2.787-.502a6 6 0 002.152-1.425 6.593 6.593 0 001.37-2.27c.32-.88.48-1.864.48-2.955s-.16-2.077-.48-2.957c-.321-.897-.779-1.654-1.37-2.27a5.84 5.84 0 00-2.152-1.453c-.827-.351-1.757-.527-2.787-.527zm41.715 0c-.912 0-1.722.185-2.432.555-.692.37-1.275.87-1.748 1.504a6.771 6.771 0 00-1.09 2.164 8.999 8.999 0 00-.353 2.535c0 .933.1 1.821.303 2.666a6.61 6.61 0 001.014 2.19 5.033 5.033 0 001.748 1.478c.709.352 1.553.53 2.533.53a5.22 5.22 0 002.254-.503 3.685 3.685 0 001.672-1.611h.05v1.795c.017.968-.21 1.769-.683 2.402-.456.634-1.19.951-2.203.951-.642 0-1.208-.142-1.698-.423-.49-.264-.82-.748-.988-1.452h-3.572c.05.775.252 1.435.607 1.98.372.564.829 1.02 1.37 1.372a6.034 6.034 0 001.823.766 7.816 7.816 0 001.975.265c1.503 0 2.703-.212 3.598-.635.895-.422 1.58-.94 2.052-1.556.473-.598.777-1.25.913-1.953.152-.704.226-1.33.226-1.875V37.403h-3.42v1.822h-.05c-.44-.792-.988-1.355-1.647-1.69-.642-.334-1.393-.501-2.254-.501zm16.523 0c-.996 0-1.909.185-2.736.555a6.39 6.39 0 00-2.104 1.531c-.59.633-1.046 1.39-1.367 2.27s-.48 1.83-.48 2.851c0 1.056.15 2.023.455 2.902a6.8 6.8 0 001.341 2.27 5.93 5.93 0 002.104 1.478c.827.335 1.757.502 2.787.502 1.486 0 2.752-.352 3.799-1.056 1.047-.704 1.825-1.874 2.332-3.51h-3.168c-.118.422-.44.828-.963 1.215-.524.37-1.147.552-1.873.552-1.013 0-1.792-.272-2.332-.818-.54-.545-.836-1.424-.887-2.639h9.45a10.023 10.023 0 00-.253-3.035 7.436 7.436 0 00-1.166-2.586 5.654 5.654 0 00-2.027-1.795c-.827-.457-1.797-.687-2.912-.687zm16.189 0a4.86 4.86 0 00-2.228.555c-.727.352-1.318.923-1.774 1.715h-.076v-1.9h-3.42v13.645h3.598v-7.152c0-1.39.219-2.384.658-2.983.439-.615 1.15-.923 2.129-.923.861 0 1.46.28 1.799.843.337.546.505 1.382.505 2.508v7.707h3.598v-8.392c0-.845-.076-1.611-.228-2.297-.136-.704-.38-1.293-.735-1.768-.354-.493-.844-.873-1.469-1.137-.608-.281-1.394-.421-2.357-.421zm-66.063.37l4.307 6.466-4.713 7.18h4.029l2.736-4.303 2.735 4.303h4.105l-4.84-7.258 4.307-6.389h-3.977l-2.279 3.565-2.306-3.565zm13.275 0l4.584 12.802c.101.264.152.545.152.844 0 .405-.117.775-.353 1.11-.22.334-.566.527-1.04.58-.354.017-.71.01-1.064-.026l-1.039-.105v3.088c.372.035.735.06 1.09.078.371.035.744.052 1.115.052 1.233 0 2.194-.237 2.887-.713.692-.475 1.232-1.266 1.62-2.375l5.474-15.336h-3.725l-2.861 9.344h-.051l-2.965-9.344zm-37.48 2.454c.591 0 1.082.123 1.47.37.39.246.7.571.936.976.254.387.432.845.533 1.373.102.51.153 1.048.153 1.611s-.051 1.107-.153 1.635a4.72 4.72 0 01-.507 1.426c-.237.405-.556.73-.961.977-.389.246-.88.369-1.471.369-.557 0-1.038-.123-1.443-.37a3.64 3.64 0 01-.989-1.001c-.253-.423-.438-.898-.556-1.426s-.178-1.056-.178-1.584c0-.563.051-1.1.152-1.61.119-.528.295-.995.532-1.4.253-.405.582-.73.988-.977.405-.246.903-.369 1.494-.369zm15.84 0c.608 0 1.114.133 1.52.397.422.246.751.572.988.976.253.405.43.87.531 1.399a8.535 8.535 0 010 3.22c-.101.51-.278.977-.531 1.399a2.69 2.69 0 01-.988.976c-.406.247-.912.37-1.52.37s-1.114-.123-1.52-.37-.734-.571-.988-.976a4.727 4.727 0 01-.508-1.399 8.535 8.535 0 010-3.22 4.39 4.39 0 01.508-1.399c.254-.404.583-.73.988-.976.406-.264.912-.397 1.52-.397zm42.602 0c.591 0 1.08.115 1.469.344.388.229.7.537.937.924.237.387.407.835.508 1.346.101.492.15 1.02.15 1.584 0 .492-.066.968-.2 1.425-.119.44-.306.836-.56 1.188a2.84 2.84 0 01-.962.844 2.764 2.764 0 01-1.342.318c-.557 0-1.02-.125-1.393-.371a3 3 0 01-.912-.95 4.51 4.51 0 01-.482-1.292 8.74 8.74 0 01-.127-1.479c0-.51.051-.993.152-1.451.119-.475.297-.89.534-1.242.253-.37.557-.66.912-.871.371-.211.81-.317 1.316-.317zm15.535 0c.878 0 1.529.248 1.951.74.44.493.743 1.214.912 2.165H81.63c.017-.264.068-.564.152-.899.101-.334.263-.65.483-.949.236-.3.54-.547.912-.74.388-.211.869-.317 1.443-.317z" filter="url(#b)" opacity=".3" stroke="#969696" xlink:href="#path141"/><path d="M.972 24.161l43.605-.002.05 3.306-43.6.042z" fill="url(#c)" stroke="#000" stroke-width=".5"/><path d="M10.283 3.555v6.863h-.05A3.82 3.82 0 008.56 8.912a4.802 4.802 0 00-2.205-.527c-.962 0-1.807.202-2.533.607a5.478 5.478 0 00-1.824 1.557c-.473.65-.835 1.409-1.088 2.271a9.74 9.74 0 00-.356 2.639c0 .95.12 1.864.356 2.744.253.88.615 1.663 1.088 2.35a5.557 5.557 0 001.85 1.611c.743.387 1.604.58 2.583.58.862 0 1.632-.158 2.307-.475.692-.334 1.25-.872 1.672-1.61h.05V22.4h3.42V3.554zm12.875 4.83c-1.03 0-1.96.175-2.787.527a5.887 5.887 0 00-2.127 1.453c-.591.616-1.048 1.372-1.37 2.27-.32.88-.48 1.866-.48 2.957s.16 2.075.48 2.955a6.62 6.62 0 001.37 2.27 6.048 6.048 0 002.127 1.425c.827.334 1.757.502 2.787.502s1.96-.168 2.787-.502a6 6 0 002.152-1.426 6.593 6.593 0 001.37-2.27c.32-.879.48-1.863.48-2.954s-.16-2.077-.48-2.957c-.321-.898-.779-1.654-1.37-2.27a5.84 5.84 0 00-2.152-1.453c-.827-.352-1.757-.527-2.787-.527zm41.715 0c-.912 0-1.722.185-2.432.554-.692.37-1.275.87-1.748 1.504a6.771 6.771 0 00-1.09 2.164 9 9 0 00-.353 2.536c0 .932.1 1.821.303 2.666a6.61 6.61 0 001.014 2.19 5.033 5.033 0 001.748 1.478c.709.352 1.553.529 2.533.529a5.22 5.22 0 002.254-.502 3.685 3.685 0 001.672-1.611h.05v1.795c.017.967-.21 1.769-.683 2.402-.456.633-1.19.951-2.203.951-.642 0-1.208-.142-1.698-.424-.49-.264-.82-.747-.988-1.45H59.68c.05.773.252 1.434.607 1.98a4.694 4.694 0 001.37 1.37 6.034 6.034 0 001.823.766 7.816 7.816 0 001.975.266c1.503 0 2.703-.213 3.598-.635.895-.422 1.58-.94 2.052-1.556.473-.599.777-1.25.913-1.954.152-.703.226-1.33.226-1.875V8.754h-3.42v1.823h-.05c-.44-.792-.988-1.355-1.647-1.69-.642-.334-1.393-.502-2.254-.502zm16.523 0c-.996 0-1.909.185-2.736.554a6.39 6.39 0 00-2.104 1.532c-.59.633-1.046 1.39-1.367 2.27s-.48 1.83-.48 2.85c0 1.057.15 2.023.455 2.903a6.8 6.8 0 001.341 2.27 5.93 5.93 0 002.104 1.478c.827.334 1.757.502 2.787.502 1.486 0 2.752-.353 3.799-1.057 1.047-.703 1.825-1.873 2.332-3.51h-3.168c-.118.423-.44.828-.963 1.215-.524.37-1.147.553-1.873.553-1.013 0-1.792-.273-2.332-.818-.54-.546-.836-1.425-.887-2.639h9.45a10.023 10.023 0 00-.253-3.035 7.436 7.436 0 00-1.166-2.586 5.654 5.654 0 00-2.027-1.795c-.827-.457-1.797-.687-2.912-.687zm16.189 0a4.86 4.86 0 00-2.228.554c-.727.352-1.318.923-1.774 1.715h-.076v-1.9h-3.42V22.4h3.598v-7.152c0-1.39.219-2.385.658-2.983.439-.616 1.15-.924 2.129-.924.861 0 1.46.281 1.799.844.337.546.505 1.382.505 2.508V22.4h3.598v-8.393c0-.844-.076-1.61-.228-2.297-.135-.703-.38-1.292-.735-1.767-.354-.493-.844-.873-1.468-1.137-.608-.281-1.395-.422-2.358-.422zm-66.062.369l4.307 6.467-4.713 7.18h4.029l2.736-4.303 2.735 4.302h4.105l-4.84-7.257 4.307-6.39h-3.977l-2.279 3.565-2.306-3.564zm13.275 0l4.584 12.803c.101.264.152.545.152.844 0 .404-.117.775-.353 1.11-.22.333-.566.526-1.04.58-.354.017-.71.009-1.064-.026-.354-.035-.701-.07-1.039-.106v3.088c.372.035.735.06 1.09.078.371.036.744.053 1.115.053 1.233 0 2.194-.238 2.887-.713.692-.475 1.232-1.266 1.62-2.375l5.474-15.336h-3.725l-2.861 9.344h-.051l-2.965-9.344zm-37.48 2.455c.591 0 1.082.123 1.47.37s.7.571.936.976c.254.387.432.845.533 1.373.102.51.153 1.048.153 1.611s-.051 1.107-.153 1.635A4.72 4.72 0 019.75 18.6c-.237.404-.556.73-.961.976-.389.247-.88.37-1.471.37-.557 0-1.038-.123-1.443-.37a3.64 3.64 0 01-.989-1.002c-.253-.422-.438-.898-.556-1.426s-.178-1.056-.178-1.584c0-.563.051-1.099.152-1.609.119-.528.295-.996.532-1.4.253-.405.582-.73.988-.977.405-.246.903-.37 1.494-.37zm15.84 0c.608 0 1.114.133 1.52.397.422.246.751.571.988.976.253.405.43.87.531 1.398a8.535 8.535 0 010 3.221c-.101.51-.278.976-.531 1.399a2.69 2.69 0 01-.988.976c-.406.246-.912.37-1.52.37s-1.114-.124-1.52-.37-.734-.572-.988-.976a4.727 4.727 0 01-.508-1.399 8.535 8.535 0 010-3.22 4.39 4.39 0 01.508-1.399c.254-.405.583-.73.989-.976.405-.264.911-.397 1.519-.397zm42.602 0c.591 0 1.08.115 1.469.344.388.229.7.536.937.924.237.387.407.835.508 1.345a7.89 7.89 0 01.15 1.584c0 .493-.066.969-.2 1.426-.119.44-.306.836-.56 1.188a2.84 2.84 0 01-.962.843 2.764 2.764 0 01-1.342.319c-.557 0-1.02-.125-1.393-.371a3 3 0 01-.912-.95 4.51 4.51 0 01-.482-1.293 8.74 8.74 0 01-.127-1.478c0-.51.051-.994.152-1.451.119-.475.297-.89.534-1.242.253-.37.557-.66.912-.872.371-.21.81-.316 1.316-.316zm15.535 0c.878 0 1.529.248 1.951.74.44.493.743 1.214.912 2.164h-5.853c.017-.264.068-.564.152-.898.101-.334.263-.65.483-.95.236-.298.54-.546.912-.74.388-.21.869-.316 1.443-.316z" fill="url(#d)" stroke="#4665A2" stroke-width=".7"/><path d="M52.988 27.291c.996-1.036 1.394-1.873 1.793-3.108l3.825-.04c.31 1.61.824 2.514 1.633 3.148z" fill="url(#e)" stroke="#000" stroke-width=".5"/><path d="M73.89 24.04l28.885-.201-.125 3.388-31.033.162c1.262-1.023 1.967-2.286 2.273-3.349z" fill="url(#f)" stroke="#000" stroke-width=".418"/></svg>