<svg xmlns="http://www.w3.org/2000/svg" width="1000" height="1000" viewBox="0 0 1000 1000"><path fill-rule="evenodd" clip-rule="evenodd" fill="#E4E2E1" d="M.04-.04h1000v1000H.04z"/><path fill-rule="evenodd" clip-rule="evenodd" fill="#FFF" d="M200.04 199.96h600v600h-600z"/><path fill-rule="evenodd" clip-rule="evenodd" d="M709.219 458.14h21.215v2.002h-19v11.8h17.083v2.002h-17.083v12.014h19.212v2.002h-21.427zm-68.162 0h2.215v13.845h19.085V458.14h2.215v29.82h-2.215v-13.973h-19.085v13.973h-2.215zm-53.719 30.332c-2.131 0-4.104-.398-5.922-1.193-1.817-.795-3.387-1.882-4.707-3.259-1.321-1.377-2.351-3.003-3.089-4.878-.738-1.874-1.107-3.876-1.107-6.006v-.085c0-2.102.376-4.089 1.129-5.964.752-1.875 1.788-3.515 3.109-4.92a14.45 14.45 0 0 1 4.707-3.323c1.818-.81 3.806-1.214 5.965-1.214 1.335 0 2.542.114 3.62.341 1.08.228 2.081.554 3.004.98.923.426 1.789.93 2.599 1.512.81.583 1.598 1.229 2.364 1.938l-1.576 1.619c-.653-.625-1.335-1.207-2.045-1.747s-1.47-1.001-2.279-1.384a13.439 13.439 0 0 0-2.641-.916 13.241 13.241 0 0 0-3.089-.341c-1.789 0-3.451.341-4.984 1.022s-2.861 1.626-3.983 2.833c-1.121 1.207-2.002 2.621-2.641 4.239-.64 1.619-.959 3.365-.959 5.24v.085c0 1.875.327 3.628.98 5.261s1.54 3.053 2.662 4.26 2.449 2.158 3.982 2.854c1.534.696 3.196 1.044 4.985 1.044 2.158 0 4.032-.397 5.623-1.193 1.59-.795 3.138-1.945 4.644-3.45l1.491 1.448c-.796.767-1.612 1.47-2.45 2.109s-1.732 1.186-2.684 1.64-1.98.81-3.089 1.065c-1.106.255-2.313.383-3.619.383zm-71.612-30.545h2.13l13.888 30.033h-2.428l-3.792-8.35H507.93l-3.792 8.35h-2.3l13.888-30.033zm8.86 19.681l-7.838-17.253-7.881 17.253h15.719zm-84.435-19.468h10.821c1.647 0 3.145.206 4.494.618 1.349.412 2.514 1.008 3.493 1.789a8.082 8.082 0 0 1 2.279 2.854c.54 1.122.81 2.407.81 3.855v.085c0 1.562-.313 2.939-.937 4.132a8.722 8.722 0 0 1-2.535 2.982c-1.065.795-2.3 1.392-3.706 1.789a16.266 16.266 0 0 1-4.452.597h-8.051v11.119h-2.215v-29.82h-.001zm10.395 16.699c1.392 0 2.655-.17 3.792-.511 1.136-.348 2.108-.838 2.918-1.484a6.786 6.786 0 0 0 1.896-2.336c.454-.909.682-1.924.682-3.039v-.085c0-1.2-.22-2.251-.661-3.153a6.247 6.247 0 0 0-1.853-2.25c-.795-.597-1.747-1.051-2.854-1.371-1.107-.312-2.329-.468-3.663-.468h-8.435v14.697h8.178zm-68.502-16.912h2.13l13.888 30.033h-2.428l-3.792-8.35h-17.594l-3.792 8.35h-2.301l13.889-30.033zm8.861 19.681l-7.839-17.253-7.881 17.253h15.72zm343.765 38.098c0 7.213-3.147 11.758-9.443 13.634l11.445 15.886h-9.382l-10.444-14.697h-9.693v14.697h-7.38V501.51h16.261c6.671 0 11.444 1.126 14.322 3.377 2.875 2.252 4.314 5.858 4.314 10.819zm-18.324 8.131c4.169 0 7.005-.646 8.506-1.939 1.501-1.292 2.251-3.366 2.251-6.223 0-2.855-.771-4.815-2.313-5.878-1.543-1.064-4.295-1.596-8.256-1.596h-9.381v15.636h9.193zm-30.808 15.353c-4.419 4.315-9.881 6.473-16.386 6.473-6.504 0-11.966-2.157-16.385-6.473-4.42-4.315-6.63-9.694-6.63-16.136s2.21-11.82 6.63-16.136c4.419-4.314 9.881-6.473 16.385-6.473 6.505 0 11.967 2.158 16.386 6.473 4.42 4.315 6.63 9.694 6.63 16.136s-2.21 11.821-6.63 16.136zm-5.409-27.361c-2.981-3.086-6.64-4.628-10.977-4.628-4.336 0-7.994 1.542-10.976 4.628-2.98 3.085-4.472 6.827-4.472 11.226s1.491 8.141 4.472 11.227c2.981 3.085 6.64 4.628 10.976 4.628 4.337 0 7.995-1.543 10.977-4.628 2.98-3.086 4.471-6.828 4.471-11.227s-1.491-8.141-4.471-11.226zm-49.538-3.565v36.962h-7.38v-36.962h-13.259v-6.754h33.897v6.754zm-51.571 27.017l-4.378 9.944h-7.88l19.263-43.716h7.88l19.263 43.716h-7.88l-4.379-9.944H579.02zm18.886-6.817l-7.942-18.011-7.942 18.011h15.884zm-47.88 16.762h-19.138V501.51H547.9c2.96 0 5.514.354 7.661 1.063 2.146.709 3.741 1.668 4.784 2.878 2.001 2.251 3.002 4.795 3.002 7.63 0 3.418-1.084 5.962-3.253 7.63-.792.584-1.334.948-1.626 1.094-.292.146-.813.386-1.563.72 2.71.584 4.868 1.803 6.474 3.658 1.604 1.855 2.407 4.159 2.407 6.911 0 3.043-1.042 5.732-3.127 8.067-2.46 2.709-6.671 4.065-12.633 4.065zm-11.757-6.818h11.57c2.71 0 4.784-.427 6.223-1.281 1.438-.855 2.157-2.471 2.157-4.848 0-3.877-3.105-5.815-9.318-5.815h-10.632v11.944zm0-18.762h9.381c5.337 0 8.005-1.813 8.005-5.441 0-2.084-.646-3.585-1.938-4.503-1.292-.917-3.294-1.376-6.004-1.376h-9.443v11.32zm-43.879 15.573c2.001 2.335 4.711 3.502 8.13 3.502s6.129-1.167 8.13-3.502c2.002-2.335 3.002-5.504 3.002-9.506V501.51h7.38v24.516c0 6.296-1.729 11.143-5.19 14.541-3.461 3.397-7.901 5.097-13.321 5.097s-9.861-1.699-13.321-5.097c-3.461-3.398-5.191-8.245-5.191-14.541V501.51h7.38v24.203c-.001 4.002 1 7.171 3.001 9.506zm-34.184 3.314c2.543 0 4.732-.427 6.567-1.281 1.834-.855 3.752-2.221 5.753-4.097l4.753 4.878c-4.628 5.128-10.247 7.692-16.854 7.692-6.609 0-12.091-2.126-16.448-6.379s-6.536-9.632-6.536-16.136 2.22-11.924 6.661-16.26c4.44-4.337 10.048-6.505 16.823-6.505s12.435 2.502 16.979 7.505l-4.69 5.129c-2.084-2.002-4.055-3.398-5.91-4.19-1.855-.792-4.034-1.188-6.536-1.188-4.419 0-8.13 1.428-11.132 4.284-3.002 2.855-4.503 6.504-4.503 10.944s1.491 8.151 4.472 11.132c2.981 2.982 6.515 4.472 10.601 4.472zm-37.75-37.023h7.38v43.716h-8.005l-24.766-31.896v31.896h-7.379V501.51h7.379l25.391 32.645zm-50.569 0h7.379v43.716h-7.379z"/><linearGradient id="a" gradientUnits="userSpaceOnUse" x1="298.372" y1="547.527" x2="313.065" y2="470.183"><stop offset="0" stop-color="#1a1853"/><stop offset=".5" stop-color="#ca2026"/><stop offset="1" stop-color="#f8991d"/></linearGradient><path fill-rule="evenodd" clip-rule="evenodd" fill="url(#a)" d="M308.331 459.957a64.852 64.852 0 0 0-.016-.978c.067.107.256.435.569.978h-.553zm-11.763 34.23c-3.432 6.382-5.389 13.041-5.889 19.971-.445 6.171.222 11.492 2.021 15.953.246.607.484 1.168.722 1.688a59.758 59.758 0 0 1-4.073-3.149c-.109-.086-.188-.122-.238-.109 1.699 2.717 3.816 5.179 6.354 7.387.392.342 1.046.504 1.207 1.007.459 1.443-.789 14.4 3.219 17.419 2.549 1.918 13.815-.494 17.293-1.617 18.147-5.861 32.222-22.622 30.128-46.777-2.296-26.491-19.748-53.431-37.154-59.906-4.705-1.751-5.749-1.591-10.635.499-16.984 7.263-33.667 33.549-35.908 59.407-2.153 24.846 12.797 41.868 31.693 47.252.511.146 1.005.28 1.485.407-.487-1.007-.885-2.148-1.208-3.356-19.792-5.886-30.863-23.434-29.076-44.051 1.708-19.71 14.918-48.76 34.154-56.987 4.021-1.718 4.402-1.963 8.479-.446 19.745 7.344 33.537 37.397 35.273 57.434 1.857 21.422-10.222 39.447-31.112 44.609-2.101.519-3.923.862-5.629 1.033-5.413.543-7.295 1.501-8.288-4.136-2.187-12.433-.534-34.932 4.876-43.565.043-.627.007.521-.4 1.501-.188.44-.309.709-.362.847-3.24 7.422-5.048 28.953-3.506 33.042-.446-1.465.353-4.55 1.51-5.183l.663-.464c3.628-2.613 5.973-6.718 8.595-11.917-.045-.072-.13-.063-.252.025a34.354 34.354 0 0 1-3.783 2.755c2.953-3.102 5.531-7.062 7.741-11.886-.06-.088-.162-.072-.308.042a43.564 43.564 0 0 1-2.667 2.224c3.708-6.714 6.974-14.491 7.316-23.379a38.682 38.682 0 0 0-3.159-16.59c-.785-1.81-1.88-3.973-3.292-6.525-2.087-3.763-3.215-5.801-3.395-6.097.093 8.157-1.346 14.788-4.315 19.84-.766 1.341-2.125 3.296-4.089 5.859-1.824 2.39-3.162 4.369-3.991 5.939z"/></svg>