<svg version="1.1"
	 xmlns="http://www.w3.org/2000/svg" xmlns:xlink="http://www.w3.org/1999/xlink" xmlns:a="http://ns.adobe.com/AdobeSVGViewerExtensions/3.0/"
	 x="0px" y="0px" width="90.3px" height="117px" viewBox="0 0 90.3 117" style="enable-background:new 0 0 90.3 117;"
	 xml:space="preserve">
<style type="text/css">
	.st0{fill:#C2FF17;}
	.st1{fill:#31BCA4;}
	.st2{fill:#40D37B;}
</style>
<defs>
</defs>
<g>
	<path class="st0" d="M85.9,105.4L1.8,66.2C0.7,65.7,0,64.6,0,63.4v-49c0-2.3,2.4-3.8,4.4-2.8l84.1,39.2c1.1,0.5,1.8,1.6,1.8,2.8v49
		C90.3,104.9,88,106.4,85.9,105.4z"/>
	<g>
		<path class="st1" d="M88.8,52.3L0,93.7l0,20.2c0,2.3,2.4,3.8,4.4,2.8l84.1-39.2c1.1-0.5,1.8-1.6,1.8-2.8V53.6
			c0-0.7-0.2-1.3-0.5-1.8l0,0l0,0c0,0,0,0,0,0l0,0c-0.2-0.4-0.6-0.6-1-0.9c0.2,0.2,0.3,0.4,0.3,0.7C89.1,51.9,89,52.1,88.8,52.3z"/>
	</g>
	<g>
		<path class="st2" d="M1.6,64.7l88.8-41.4V3.1c0-2.3-2.4-3.8-4.4-2.8L1.8,39.5C0.7,40,0,41.1,0,42.3v21.1c0,0.7,0.2,1.3,0.5,1.8
			l0,0c0,0,0,0,0,0c0,0,0,0,0,0l0,0c0.2,0.4,0.6,0.6,1,0.9c-0.2-0.2-0.3-0.4-0.3-0.7C1.2,65.1,1.3,64.9,1.6,64.7z"/>
	</g>
</g>
</svg>
