<svg version="1.1"
	 xmlns="http://www.w3.org/2000/svg" xmlns:xlink="http://www.w3.org/1999/xlink" xmlns:a="http://ns.adobe.com/AdobeSVGViewerExtensions/3.0/"
	 x="0px" y="0px" width="581.8px" height="117px" viewBox="0 0 581.8 117" style="enable-background:new 0 0 581.8 117;"
	 xml:space="preserve">
<style type="text/css">
	.st0{fill:#3E454C;}
	.st1{fill:#C2FF17;}
	.st2{fill:#31BCA4;}
	.st3{fill:#40D37B;}
</style>
<defs>
</defs>
<g>
	<path class="st0" d="M179.1,95h-6.9L148,34.1V95h-9.9V22.9h15.7l21.9,56.3L198,22.9h15.7V95h-9.9V34.1L179.1,95z"/>
	<path class="st0" d="M230.6,95V22.9h9.9V95H230.6z"/>
	<path class="st0" d="M257.5,95V22.9h9.9v63.2h31.3V95H257.5z"/>
	<path class="st0" d="M354,95l-5.7-15.3h-30.7L312.1,95h-10.8l27.9-72.1h8.7L365.4,95H354z M321,70.8h24.2l-12.1-32.9H333L321,70.8z
		"/>
	<path class="st0" d="M408.6,63.9V55h28.2v27.4c-6.9,8.8-17.7,13.8-29.6,13.8c-22,0-38.7-14.9-38.7-37.3c0-21.3,17.4-37.3,38.7-37.3
		c11.1,0,21,4.9,27.9,12.8l-7,5.8c-5-5.7-12.7-9.7-20.9-9.7C391,30.5,379,42.5,379,58.9c0,17.5,11.7,28.4,28.2,28.4
		c7.6,0,14.6-2.7,19.7-7.5v-16H408.6z"/>
	<path class="st0" d="M491.2,95l-21.6-30.5h-7.4V95h-9.9V22.9h21.4c11,0,24.6,5.8,24.6,20.7c0,12.3-8.8,18.4-17.6,20.3L503.6,95
		H491.2z M473.2,31.8h-11v23.9h9c9.6,0,16.7-3.5,16.7-11.7C487.8,36.6,481.9,31.8,473.2,31.8z"/>
	<path class="st0" d="M544.8,96.2c-21,0-37.1-16.7-37.1-37.3c0-20.6,16.1-37.3,37.1-37.3c21,0,37.1,16.7,37.1,37.3
		C581.8,79.5,565.8,96.2,544.8,96.2z M544.8,30.5c-15.3,0-26.6,12.5-26.6,28.4s11.2,28.4,26.6,28.4s26.6-12.5,26.6-28.4
		S560.1,30.5,544.8,30.5z"/>
</g>
<g>
	<path class="st1" d="M85.9,105.4L1.8,66.2C0.7,65.7,0,64.6,0,63.4v-49c0-2.3,2.4-3.8,4.4-2.8l84.1,39.2c1.1,0.5,1.8,1.6,1.8,2.8v49
		C90.3,104.9,88,106.4,85.9,105.4z"/>
	<g>
		<path class="st2" d="M88.8,52.3L0,93.7l0,20.2c0,2.3,2.4,3.8,4.4,2.8l84.1-39.2c1.1-0.5,1.8-1.6,1.8-2.8V53.6
			c0-0.7-0.2-1.3-0.5-1.8l0,0l0,0c0,0,0,0,0,0l0,0c-0.2-0.4-0.6-0.6-1-0.9c0.2,0.2,0.3,0.4,0.3,0.7C89.1,51.9,89,52.1,88.8,52.3z"/>
	</g>
	<g>
		<path class="st3" d="M1.6,64.7l88.8-41.4V3.1c0-2.3-2.4-3.8-4.4-2.8L1.8,39.5C0.7,40,0,41.1,0,42.3v21.1c0,0.7,0.2,1.3,0.5,1.8
			l0,0c0,0,0,0,0,0c0,0,0,0,0,0l0,0c0.2,0.4,0.6,0.6,1,0.9c-0.2-0.2-0.3-0.4-0.3-0.7C1.2,65.1,1.3,64.9,1.6,64.7z"/>
	</g>
</g>
</svg>
