<svg xmlns="http://www.w3.org/2000/svg" width="90.3" height="117" viewBox="0 0 90.3 117"><path d="M85.9 105.4L1.8 66.2C.7 65.7 0 64.6 0 63.4v-49c0-2.3 2.4-3.8 4.4-2.8l84.1 39.2c1.1.5 1.8 1.6 1.8 2.8v49c0 2.3-2.3 3.8-4.4 2.8z" fill="#c2ff17"/><path d="M88.8 52.3L0 93.7v20.2c0 2.3 2.4 3.8 4.4 2.8l84.1-39.2c1.1-.5 1.8-1.6 1.8-2.8V53.6c0-.7-.2-1.3-.5-1.8-.2-.4-.6-.6-1-.9.2.2.3.4.3.7 0 .3-.1.5-.3.7z" fill="#31bca4"/><path d="M1.6 64.7l88.8-41.4V3.1C90.4.8 88-.7 86 .3L1.8 39.5C.7 40 0 41.1 0 42.3v21.1c0 .7.2 1.3.5 1.8.2.4.6.6 1 .9-.2-.2-.3-.4-.3-.7 0-.3.1-.5.4-.7z" fill="#40d37b"/></svg>